<svg xmlns="http://www.w3.org/2000/svg" xmlns:xlink="http://www.w3.org/1999/xlink" id="Layer_1" data-name="Layer 1" viewBox="0 0 226.2 111.6"><defs><style>.cls-1{fill:none;}.cls-2{clip-path:url(#clip-path);}.cls-11,.cls-3,.cls-4,.cls-5,.cls-8{fill:#fff;}.cls-11,.cls-4,.cls-5,.cls-7,.cls-8{isolation:isolate;}.cls-4{font-size:15.86px;}.cls-4,.cls-5{font-family:BellMTBold, Bell MT;}.cls-5{font-size:22.99px;}.cls-6{fill:#292b68;}.cls-8{font-size:10.56px;}.cls-11,.cls-8{font-family:Candara-Bold, Candara;font-weight:700;}.cls-9{letter-spacing:0.01em;}.cls-10{letter-spacing:-0.03em;}.cls-11{font-size:11.53px;}</style><clipPath id="clip-path"><rect class="cls-1" x="-3.33" y="-1.46" width="237.01" height="97.75"></rect></clipPath></defs><g class="cls-2"><path class="cls-3" d="M47.35,43.71v1.71a104.11,104.11,0,0,1-8,8,34.16,34.16,0,0,1-7.13,4.83,15.38,15.38,0,0,1-6.71,1.68,9.9,9.9,0,0,1-4.81-1.09,7.32,7.32,0,0,1-3-3.27,11.76,11.76,0,0,1-1-5.06,17.13,17.13,0,0,1,.76-4.87,26.06,26.06,0,0,1,2.12-5.23A51.21,51.21,0,0,1,23,35a72.84,72.84,0,0,1,4.78-5.87,53.73,53.73,0,0,1,5.6-5.59,36,36,0,0,1,5-3.64,23.8,23.8,0,0,1,4.17-2,11,11,0,0,1,3.22-.64,4,4,0,0,1,2.21.62,4.21,4.21,0,0,1,1.39,1.81,7.68,7.68,0,0,1,.48,2.8,13.94,13.94,0,0,1-1.9,6.57A39.51,39.51,0,0,1,43,36a44.36,44.36,0,0,1-5.59,5.46,8.15,8.15,0,0,1-3.92,2.12A2.12,2.12,0,0,1,32,42.9a1.92,1.92,0,0,1-.81-1.43,6.56,6.56,0,0,1,1.56-3.58A34,34,0,0,1,36.16,34c1.23-1.14,2-1.73,2.21-1.73s.17,0,.17.14a2.31,2.31,0,0,1-.25.81c-.2.39,1,0,2.4-1.45a36.38,36.38,0,0,0,3.86-5.21A9.28,9.28,0,0,0,46.29,22,1.69,1.69,0,0,0,46,20.8a1.17,1.17,0,0,0-1-.39,10.9,10.9,0,0,0-5.59,2.8,54,54,0,0,0-13.85,17A19,19,0,0,0,23,48.6a8.36,8.36,0,0,0,.64,3.56,5,5,0,0,0,1.85,2.21,5.67,5.67,0,0,0,2.88.92,16.79,16.79,0,0,0,8.39-2.8,60.12,60.12,0,0,0,10.52-8.64"></path><path class="cls-3" d="M66.48,43.82v1.65c-1.51,1.54-2.8,2.8-3.89,3.75a24,24,0,0,1-2.79,2.24,4.3,4.3,0,0,1-2.1.72c-1.34,0-2-.78-2-2.37a10.37,10.37,0,0,1,1.26-4.45,50.42,50.42,0,0,1,3.61-5.93,13.94,13.94,0,0,0-2.18,1.48,13.46,13.46,0,0,0-1.85,1.77l-1.37,1.56C54,45.5,53,46.79,51.94,48.1s-1.74,2.18-2.1,2.6a1.54,1.54,0,0,1-1,.59c-1.37,0-2.37-1.68-2-5A24.7,24.7,0,0,1,51.63,35c3-4.54,3.89-5.6,6-8.56A72.58,72.58,0,0,1,63,19.88c1.44-1.47,2.37-2.2,2.8-2.18a4.23,4.23,0,0,1,1.48.36c.37.2.53.42.53.65a4.86,4.86,0,0,1-.89,2.15c-.59,1-1.6,2.54-3.05,4.64s-2.8,3.81-3.36,4.7-1.62,2.21-2.79,3.86-2.49,3.16-3.58,4.48-2.3,2.79-3.7,4.22c-.89,2.1-1.45,3.22-.86,3.44a1.92,1.92,0,0,0,1.23-.67c2.8-2.8,4.19-4.56,5.59-6a43.73,43.73,0,0,1,4.31-3.72,5.64,5.64,0,0,1,2.57-1.26,1.87,1.87,0,0,1,1.46.93A2.81,2.81,0,0,1,65.42,37a1.37,1.37,0,0,1-.25.67c-1.23,1.48-2.24,2.8-3,3.69A24.7,24.7,0,0,0,60.5,44a4.51,4.51,0,0,0-.59,2c0,.81.39,1.23,1.17,1.23a14.65,14.65,0,0,0,5.6-3.36"></path><path class="cls-3" d="M83.15,43.77V45.5a16,16,0,0,1-2.8,2.1,6.1,6.1,0,0,1-3,.39c-2.24,2.8-4.22,4-5.93,4a4.14,4.14,0,0,1-2.8-1,6.82,6.82,0,0,1-1.9-2.63,9.35,9.35,0,0,1-.7-3.69A8,8,0,0,1,67.12,41a18.25,18.25,0,0,1,2.8-3.78,17.38,17.38,0,0,1,3.75-2.8,8.13,8.13,0,0,1,4-1.06,4,4,0,0,1,1.9.36,1.15,1.15,0,0,1,.7,1.07A1.91,1.91,0,0,1,79.65,36a2.39,2.39,0,0,1,1.35.7,2.91,2.91,0,0,1,.36,1.76,10.77,10.77,0,0,1-.59,3.13,16,16,0,0,1-1.59,3.56s-.45,1.48,1.73.22a5.24,5.24,0,0,0,.76-.45l1.48-1.12M77.81,37a20.36,20.36,0,0,0-8,6.57c-1.21,1.85-.67,5.59,2.35,4.92a9.91,9.91,0,0,0,3.38-1.93,7.23,7.23,0,0,1-.42-2.35,9,9,0,0,1,.76-3.35,27.88,27.88,0,0,1,2-3.89"></path><path class="cls-3" d="M95.48,43.82v1.9a26.07,26.07,0,0,1-4.69,4.87,6.49,6.49,0,0,1-3.7,1.65,3.3,3.3,0,0,1-3.16-2.07,11.46,11.46,0,0,1-1-4.89,8.9,8.9,0,0,1,.19-1.93,6.72,6.72,0,0,1,.51-1.51c.19-.4.53-1,1.06-1.88,2.43-3.8,4.7-5.59,6.74-5.59,1,0,1.57.39,1.57,1.2a3,3,0,0,1-1,2.6,19.14,19.14,0,0,0-5.23,5.6c-1.26,3.46,1.2,5.93,3.33,4.75a12.82,12.82,0,0,0,1.76-1.26c.9-.73,2.1-1.79,3.66-3.1M93.72,32.58a1.91,1.91,0,0,1-1.23-.51,1.51,1.51,0,0,1-.59-1.23A4.31,4.31,0,0,1,93,28.3a3,3,0,0,1,2.26-1.4,1.73,1.73,0,0,1,1.82,1.64.88.88,0,0,1,0,.23A4.28,4.28,0,0,1,96,31.24a3.06,3.06,0,0,1-2.3,1.34"></path><path class="cls-3" d="M110.84,43.88v1.73c-1.85,1.82-3.36,3.22-4.5,4.23a18.87,18.87,0,0,1-3.28,2.32,6,6,0,0,1-3,.84,3.82,3.82,0,0,1-2.63-1.12,7.8,7.8,0,0,1-1.85-3A11,11,0,0,1,95,45.05a6.33,6.33,0,0,1,.76-3.13,18.31,18.31,0,0,1,3-3.55,28.39,28.39,0,0,1,4.89-4,7.58,7.58,0,0,1,3.58-1.43,2.21,2.21,0,0,1,2.21,2.3,5.5,5.5,0,0,1-.84,2.34,12.3,12.3,0,0,1-1.93,2.66c-.69.76-1.25,1.12-1.67,1.12s-.67-.25-.67-.73a2.54,2.54,0,0,0,0-.39,2.16,2.16,0,0,0,0-.36c0-.2,0-.31-.23-.34a.69.69,0,0,0-.53.2c-1.73,1.2-2.8,2-3.55,2.54a7.61,7.61,0,0,0-1.51,1.49,2.76,2.76,0,0,0-.56,1.59,3.36,3.36,0,0,0,1,2.49,3.53,3.53,0,0,0,2.57.95,8.4,8.4,0,0,0,3.92-1.26,42.92,42.92,0,0,0,5.39-3.66"></path><path class="cls-3" d="M114.9,44.77v.65a3.41,3.41,0,0,0,.75,2.37,2.47,2.47,0,0,0,2,.84,6.63,6.63,0,0,0,2.63-.58A14.17,14.17,0,0,0,123,46.48c.9-.67,2-1.54,3.3-2.66.65-.56,1-.78,1.15-.7s0,.93-1.15,2.3c-.67.78-1.59,1.87-2.79,3.1a23.12,23.12,0,0,1-2.66,2.29,8.64,8.64,0,0,1-5.2,1.88A4.29,4.29,0,0,1,112,50.9a7.84,7.84,0,0,1-1.37-4.9,9.69,9.69,0,0,1,1.29-5,19,19,0,0,1,4.14-4.67A17,17,0,0,1,120,33.84a8.89,8.89,0,0,1,3.47-.84,3.08,3.08,0,0,1,1.93.56,2,2,0,0,1,.73,1.68,5.64,5.64,0,0,1-1.23,3.24,14.37,14.37,0,0,1-3.86,3.3,40.6,40.6,0,0,1-6.15,3.08m.25-1.71a14.46,14.46,0,0,0,4-2.24,12.24,12.24,0,0,0,2.46-2.57,4.48,4.48,0,0,0,.78-1.82.5.5,0,0,0-.41-.58h-.15a3.94,3.94,0,0,0-1.51.59,12.51,12.51,0,0,0-2.12,1.57,11.15,11.15,0,0,0-1.93,2.24,7.39,7.39,0,0,0-1.12,2.79"></path></g><text class="cls-4" transform="translate(93.83 20.78)">THE</text><text class="cls-5" transform="translate(32.64 76.35)">SCHOOL</text><path class="cls-3" d="M200.17,9.08H141.89A5,5,0,0,0,136.94,14h0V72.32a4.94,4.94,0,0,0,4.95,5h58.28a4.94,4.94,0,0,0,5-5V14a5,5,0,0,0-5-4.95m2.24,63a2.48,2.48,0,0,1-2.49,2.49H142.14a2.48,2.48,0,0,1-2.49-2.49V14.29a2.48,2.48,0,0,1,2.49-2.49h57.78a2.48,2.48,0,0,1,2.49,2.49Z"></path><polygon class="cls-6" points="163.2 56.27 163.2 57.44 163.23 57.44 163.2 56.49 163.2 56.27"></polygon><polyline class="cls-6" points="165.91 53.75 165.94 53.75 165.94 53.75 165.94 53.72 165.91 53.75"></polyline><path class="cls-3" d="M201.77,43.35a10.19,10.19,0,0,0-7.55-9.82,10.23,10.23,0,0,0-9.09-14.82,10.07,10.07,0,0,0-4.51,1.06,10.17,10.17,0,0,0-19.21.31,10.21,10.21,0,0,0-14.13,13.59,10.18,10.18,0,0,0,.51,19.58,10.18,10.18,0,0,0,15.38,12.64v2.4a4.4,4.4,0,0,0,4.45,4.26H168a4.35,4.35,0,0,0,3-1.12,4.51,4.51,0,0,0,3,1.2h.42a4.49,4.49,0,0,0,4.45-4.45V65.55a10,10,0,0,0,6.6,2.47A10.21,10.21,0,0,0,195.7,57.81h0a10.36,10.36,0,0,0-1.15-4.7,10.22,10.22,0,0,0,7.22-9.76m-46.24-6.1a1.51,1.51,0,0,1-.45-2.09l.06-.09a1.64,1.64,0,0,1,1.26-.62,2.07,2.07,0,0,1,1.32.51l9.73,7.91a5.71,5.71,0,0,0,7.3,0L184.37,35a2.07,2.07,0,0,1,1.32-.53,1.5,1.5,0,0,1,1.17.56c.7.81.48,1.59-.34,2.29l-10.37,8.39v7.92H165.94v-8ZM168,69.89h-.39a1.65,1.65,0,0,1-1.68-1.62V57.44h3.61V68.66a1.61,1.61,0,0,1-1.6,1.23m6.44,0H174a1.68,1.68,0,0,1-1.65-1.23V57.44h3.74V68.18a1.7,1.7,0,0,1-1.7,1.71h0m19.32-19.38-3.1,1,1.54,2.79a7.93,7.93,0,0,1,.84,3.44,7.47,7.47,0,0,1-14,3.44V53.75h0V47.12l9.37-7.66a4.67,4.67,0,0,0,1.71-2.8A4.14,4.14,0,0,0,189,33.39a4.24,4.24,0,0,0-3.27-1.57A4.72,4.72,0,0,0,182.61,33L173,40.8a2.81,2.81,0,0,1-3.84,0l-9.76-8a4.77,4.77,0,0,0-3-1.12,4.35,4.35,0,0,0-3.35,1.6,3.9,3.9,0,0,0-.93,2.79,4.42,4.42,0,0,0,1.68,3.14l9.4,7.69V61.75a7.47,7.47,0,0,1-12.95-7.41l1.51-3-3.13-.79a7.46,7.46,0,0,1-.45-14.37l3.08-1-1.52-2.8a7.46,7.46,0,0,1,10.35-9.93l2.8,1.68,1-3.19a7.46,7.46,0,0,1,14-.25l1.06,2.8,2.8-1.35a7.5,7.5,0,0,1,10.77,6.72,7.39,7.39,0,0,1-.81,3.35l-1.54,3,3.24.87a7.44,7.44,0,0,1,5.6,7.19,7.54,7.54,0,0,1-5.32,7.16"></path><path class="cls-3" d="M171,39.49a6,6,0,1,0-6-6.1,6,6,0,0,0,6,6.1h0m0-9.26a3.27,3.27,0,1,1-3.24,3.3.66.66,0,0,1,0-.14A3.27,3.27,0,0,1,171,30.23"></path><g class="cls-7"><text class="cls-8" transform="translate(32.53 103.59) scale(0.93 1)">KNOWLE<tspan class="cls-9" x="40.95" y="0">D</tspan><tspan x="47.87" y="0" xml:space="preserve">GE       CHARACTER       HEA</tspan><tspan class="cls-10" x="166.69" y="0">L</tspan><tspan x="171.45" y="0">TH</tspan></text></g><rect class="cls-3" x="93.81" y="98.11" width="4.53" height="4.53" transform="translate(-42.84 97.36) rotate(-45.01)"></rect><rect class="cls-3" x="160.64" y="98.13" width="4.53" height="4.53" transform="translate(-23.27 144.63) rotate(-45.01)"></rect><g class="cls-7"><text class="cls-11" transform="translate(32.41 88.99) scale(0.93 1)"><tspan xml:space="preserve">Bringing  you the power of education</tspan></text></g><rect class="cls-3" x="32.86" y="93.22" width="170.98" height="0.81"></rect><rect class="cls-3" x="32.86" y="107.09" width="170.98" height="0.81"></rect></svg>